<?xml version="1.0" encoding="utf-8"?>
<svg viewBox="0 0 500 500" xmlns="http://www.w3.org/2000/svg">
  <ellipse style="stroke: rgb(0, 0, 0); paint-order: stroke; fill: rgb(22, 27, 34);" cx="249.9" cy="249.959" rx="248.853" ry="248.853" transform="matrix(1, 0, 0, 1, 0, 5.684341886080802e-14)"/>
  <rect width="50" height="50" style="fill: rgb(216, 216, 216); stroke: rgb(0, 0, 0);" x="225" y="225" transform="matrix(1, 0, 0, 1, 0, 5.684341886080802e-14)"/>
  <rect width="50" height="50" style="fill: rgb(216, 216, 216); stroke: rgb(0, 0, 0);" x="225" y="325" transform="matrix(1, 0, 0, 1, 0, 5.684341886080802e-14)"/>
  <rect width="50" height="50" style="fill: rgb(216, 216, 216); stroke: rgb(0, 0, 0);" x="225" y="125" transform="matrix(1, 0, 0, 1, 0, 5.684341886080802e-14)"/>
  <rect width="50" height="50" style="fill: rgb(216, 216, 216); stroke: rgb(0, 0, 0);" x="325" y="225" transform="matrix(1, 0, 0, 1, 0, 5.684341886080802e-14)"/>
  <rect width="50" height="50" style="fill: rgb(216, 216, 216); stroke: rgb(0, 0, 0);" x="325" y="325" transform="matrix(1, 0, 0, 1, 0, 5.684341886080802e-14)"/>
  <rect width="50" height="50" style="fill: rgb(216, 216, 216); stroke: rgb(0, 0, 0);" x="325" y="125" transform="matrix(1, 0, 0, 1, 0, 5.684341886080802e-14)"/>
  <rect width="50" height="50" style="fill: rgb(216, 216, 216); stroke: rgb(0, 0, 0);" x="125" y="225" transform="matrix(1, 0, 0, 1, 0, 5.684341886080802e-14)"/>
  <rect width="50" height="50" style="fill: rgb(216, 216, 216); stroke: rgb(0, 0, 0);" x="125" y="325" transform="matrix(1, 0, 0, 1, 0, 5.684341886080802e-14)"/>
  <rect width="50" height="50" style="fill: rgb(216, 216, 216); stroke: rgb(0, 0, 0);" x="125" y="125" transform="matrix(1, 0, 0, 1, 0, 5.684341886080802e-14)"/>
</svg>